<?xml version="1.0" encoding="UTF-8" standalone="no"?><svg id="Layer_1" data-name="Layer 1" xmlns="http://www.w3.org/2000/svg" viewBox="0 0 500 500"><defs><style>.cls-1{fill:red;}</style></defs><path class="cls-1" d="M251.09,418c-89,.44-161.19-72.69-161.18-161.06S162.16,95.78,251.17,95.82c88.69,0,161.09,72.67,161,161.34C412.05,345.38,339.87,418.42,251.09,418ZM395.83,205.05l-1.61-.24c-2.55,2.5-5.08,5-7.65,7.48-1.93,1.85-4.08,2.68-6.2.43-2-2.1-1.11-4.16.62-5.94,2.77-2.87,5.51-5.79,8.44-8.49,1.88-1.74,2-3.28.93-5.57A162.51,162.51,0,0,0,370,160.12c-1.84-2.28-3.87-4.42-6.31-7.19-1.67,4.12-3,7.57-4.47,11-1,2.31-2.71,3.79-5.31,2.81s-2.84-3.23-1.92-5.6c1.34-3.49,2.61-7,4.19-10.41,1.32-2.84.77-4.83-1.53-6.88a154.15,154.15,0,0,0-36.43-24.67,15.37,15.37,0,0,0-2.81-.65c0,3.76.05,7.11,0,10.45-.05,2.63-.47,5.27-3.92,5.2-3.24-.06-4.07-2.54-4.17-5.21-.15-3.73-.16-7.48-.07-11.22.06-2.46-.77-4-3.26-4.7-10-2.58-19.94-5.48-30-7.69-5.24-1.15-10.73-1.11-16.85-1.68,1.75,4.23,3.21,7.63,4.57,11.07.89,2.27,1.12,4.62-1.63,5.7s-4.54-.35-5.6-2.87c-1.41-3.34-3-6.61-4.13-10-1.06-3.18-3-4.44-6.18-3.92-11.66,1.92-23.34,3.75-35,5.89-3.45.64-6.73,2.2-10.89,3.62,3.14,3.2,5.65,5.73,8.13,8.3,1.87,1.93,2.6,4.09.48,6.25s-4.16,1-5.91-.6a86.75,86.75,0,0,1-7.68-7.66c-2.39-2.89-4.7-3.05-7.7-1.14-10.3,6.52-20.72,12.88-30.95,19.5-2.6,1.68-4.7,4.12-7.47,6.6,4.21,1.71,7.68,3.07,11.1,4.52,2.38,1,3.65,2.79,2.53,5.37-1,2.39-3.09,2.7-5.36,1.84a88.26,88.26,0,0,1-9.71-3.91c-3.73-2-6.15-.86-8.68,2.09-9,10.46-17,21.52-23,34-.57,1.18-1,2.41-1.88,4.37,3.92,0,7.12-.07,10.31,0,2.73.08,5.65.52,5.72,4s-2.81,4-5.56,4.13c-3.62.12-7.24.15-10.85.05-2.51-.08-3.82,1-4.68,3.31a156.65,156.65,0,0,0-8.57,36.71c-.36,3.12-.4,6.28-.62,10.08,4-1.68,7.32-3.1,10.64-4.44,2.54-1,5.1-1.28,6.29,1.8,1.13,2.91-1,4.35-3.27,5.38a107.41,107.41,0,0,1-10,4.22c-3.24,1.06-4.15,3-3.88,6.19,1.18,14.2,3.21,28.24,8.1,41.72.4,1.09.95,2.13,1.43,3.2l1.49.84c2.3-2.77,4.5-5.64,6.95-8.27,1.64-1.76,3.77-2.71,5.92-.7,2.3,2.16,1.35,4.32-.43,6.22-2.56,2.72-5.11,5.48-7.91,7.95-2.34,2.07-2.85,4-1.21,6.77,3.85,6.56,7.12,13.47,11.29,19.81,4.35,6.6,9.47,12.69,14.93,19.89,1.94-4.65,3.43-8.14,4.85-11.66,1-2.46,2.75-3.69,5.29-2.75,2.72,1,2.77,3.31,1.92,5.62a69.59,69.59,0,0,1-3.94,9.7c-2.06,3.76-1,6.31,2.13,8.6,7.82,5.76,15.49,11.75,23.5,17.23,4.32,3,9.22,5.08,14.73,8,0-4.77-.09-8.36,0-11.94.08-2.52,1.25-4.44,4-4.51,2.52-.07,3.45,1.75,3.59,3.95.26,4.1.53,8.2.51,12.31,0,2.66,1,4.22,3.55,4.9,8.79,2.32,17.49,5,26.37,6.94,6.37,1.36,13,1.66,20.38,2.54-1.82-4.35-3.27-7.74-4.65-11.16-1-2.43-1.11-4.84,1.71-6s4.42.74,5.46,3.07c1.58,3.53,3.24,7,4.52,10.67,1,2.78,2.72,3.73,5.41,3.3,11.43-1.8,22.88-3.48,34.27-5.54,3.82-.69,7.46-2.38,12-3.88-3.25-3.33-5.88-5.93-8.39-8.64-1.67-1.8-2.49-3.87-.4-5.93s4.16-1.2,5.95.47c2.82,2.64,5.66,5.29,8.23,8.17,2,2.23,3.74,2.49,6.48,1.16a161.7,161.7,0,0,0,32.77-20.81c2-1.71,4-3.54,6.51-5.76l-10.91-4.62c-2.49-1.06-4.07-2.76-2.82-5.53s3.53-2.43,5.79-1.57a100.16,100.16,0,0,1,10.06,4.06c3.17,1.62,5.42.95,7.4-1.75,6.12-8.32,12.44-16.51,18.32-25,2.77-4,4.71-8.6,7.52-13.84-4.86,0-8.57.09-12.27,0-2.3-.08-4.24-1-4.27-3.71s1.69-3.67,4.12-3.8c3.86-.2,7.72-.62,11.57-.55,3.08.06,4.94-.88,5.71-4,2.45-9.91,5.26-19.74,7.42-29.71,1.11-5.12,1.14-10.47,1.73-16.48-4.26,1.76-7.66,3.22-11.11,4.58-2.27.89-4.61,1.1-5.69-1.64s.35-4.54,2.87-5.6c3.34-1.39,6.61-3,10-4.13,3.17-1.06,4.33-3,3.92-6.18-.84-6.54-1.16-13.18-2.43-19.64C400.28,221.85,397.9,213.48,395.83,205.05Z"/><path class="cls-1" d="M369.41,257c.94,64.65-54,118.62-118.46,118.52-64.75-.1-118.56-54.35-118.54-118.7,0-64.18,53.87-118.7,119.09-118.51C315.47,138.52,370.4,192.12,369.41,257Zm-167.78-.23c0,27.76,21.57,49.52,49.17,49.55,27.81,0,49.6-21.52,49.64-49.08,0-28-21.52-49.73-49.35-49.73S201.64,229.18,201.63,256.8ZM266.81,196c-1,3.88.71,6.71,5.47,7.63a8.29,8.29,0,0,1,3,1.42c2.7,1.89,4.61,1.09,6.69-1.22q15.64-17.35,31.52-34.47c1.76-1.9,1.54-3-.54-4.36a112.71,112.71,0,0,0-40.1-16.79c-2.82-.57-3.83.16-3.95,3C268.32,165.94,267.56,180.61,266.81,196Zm-80.47-29.77a29.29,29.29,0,0,0,1.76,2.59c9.37,10.17,19.2,20,28,30.63,4.83,5.88,8.87,7.79,15.63,3.61,2.48-1.53,3.78-2.71,3.61-5.61-.36-5.84-.5-11.69-.78-17.54-.46-9.57-1-19.14-1.39-28.72-.11-2.94-1.26-3.75-4-2.91-7.13,2.22-14.51,3.83-21.36,6.7C200.5,158.05,193.73,162.29,186.34,166.24ZM190,272.76l-14.32.69c-10.2.49-20.39,1-30.59,1.43-2.83.11-3.25,1.31-2.74,3.84a114.12,114.12,0,0,0,16.3,39.52c1.92,3,3.18,2.81,5.62.51q15.06-14.25,30.48-28.13c5.91-5.33,5.7-5.06,3.13-12.39C196.29,273.79,194.13,271.71,190,272.76Zm76.89,44.11c.73,15.63,1.48,30.8,2.12,46,.12,2.75,1.17,3.37,3.77,2.84A113.23,113.23,0,0,0,312.89,349c2.66-1.75,2-3,.24-4.89q-14.06-15-27.9-30.18c-5.81-6.35-5.68-6.21-13.87-3.34C267.79,311.81,266,313.52,266.86,316.87Zm73.82,4.22c.7-.49,1.09-.64,1.29-.93a108.19,108.19,0,0,0,17.94-42.36c.53-2.68-1.2-2.81-3.09-2.9-14.3-.71-28.59-1.49-42.9-2.13-7-.3-7-.18-10,6.35a14.26,14.26,0,0,1-1.16,2.35c-1.84,2.61-.89,4.41,1.28,6.37,9.15,8.25,18.18,16.66,27.28,25C334.37,315.58,337.47,318.25,340.68,321.09Zm-150.09-80c3.67.92,6-.68,6.89-4.78a9.22,9.22,0,0,1,1.54-3.39c2.14-3,1.1-5-1.41-7.28q-17.1-15.36-33.93-31c-1.92-1.78-3.06-2-4.63.38a112.7,112.7,0,0,0-16.8,40.49c-.52,2.57.4,3.35,2.81,3.45C160.11,239.64,175.15,240.37,190.59,241.1Zm120.54,0c4.64-.24,8.87-.47,13.09-.66,10.95-.51,21.89-1,32.83-1.47,2.47-.1,3.27-1,2.76-3.5a112.73,112.73,0,0,0-16.61-40.17c-1.54-2.33-2.65-2.72-4.85-.64-10.16,9.56-20.45,19-30.69,28.45-6.05,5.59-5.85,5.51-3.1,13.26C305.84,240,307.52,242,311.13,241.11ZM186.58,346.87c1.47,1.1,2.5,2,3.61,2.69a112.89,112.89,0,0,0,38.43,16c3.37.72,4.38,0,4.52-3.48.54-14.18,1.34-28.35,2.06-42.51.34-6.71.36-6.7-5.93-9.49a13.44,13.44,0,0,1-2.35-1.14c-2.8-2-4.82-1.23-7,1.28-5,5.74-10.22,11.24-15.33,16.85C198.73,333.48,192.89,339.93,186.58,346.87Zm18.49-54.77a3,3,0,0,0-1,.42c-12.21,11.17-24.43,22.34-36.53,33.63a3.38,3.38,0,0,0-.05,3.32c3.42,3.76,7.11,7.29,10.69,10.92,1.65,1.68,3,1.2,4.32-.44,1.5-1.82,3.07-3.59,4.67-5.33,9.11-9.89,18.26-19.74,27.28-29.7.64-.71,1-2.76.49-3.27C211.83,298.34,208.42,295.28,205.07,292.1Zm-.75-70.67c3.85-3.81,7.44-7.35,11.34-11.19.13.55.15.25,0,.09-11.23-12.32-22.45-24.66-33.8-36.87a3.42,3.42,0,0,0-3.34-.05c-3.76,3.42-7.29,7.11-10.92,10.68-1.66,1.64-1.17,2.89.41,4.32,8.94,8.11,17.81,16.31,26.72,24.45C198.1,215.94,201.54,219,204.32,221.43Zm81.73-10.67c3.07,3.23,6.1,6.16,8.8,9.36,1.67,2,2.73,1.75,4.48.13q17.37-16.14,34.91-32.1c1.31-1.2,1.92-2.28.47-3.72l-11-11.09c-1.59-1.61-2.76-.86-4,.53-8.48,9.28-17,18.51-25.5,27.79C291.39,204.67,288.72,207.75,286.05,210.76Zm.34,93c-.14-.65-.15-.5-.08-.42,11.31,12.41,22.62,24.84,34,37.15a3.1,3.1,0,0,0,3.05.08c3.91-3.63,7.7-7.4,11.31-11.33.51-.56.28-2.68-.36-3.29-9.33-8.79-18.77-17.45-28.22-26.11-3-2.74-6.06-5.37-8.37-7.41C293.9,296.32,290.4,299.81,286.39,303.8Zm-35.54,63.82c2.49,0,5,0,7.48,0,1.94,0,2.88-.8,2.79-3-.48-10.95-.8-21.9-1.22-32.85-.18-4.85-.54-9.69-.68-14.54-.07-2.34-.85-3.38-3.37-3.22a75.63,75.63,0,0,1-9.64,0c-2.52-.15-3.28.91-3.36,3.23-.47,13.69-1.11,27.37-1.49,41.06C241.09,367.69,241.23,367.69,250.85,367.62ZM150.54,247.21v-.13a57.72,57.72,0,0,1-6.71-.06c-2.43-.29-3.52.48-3.5,2.94,0,4.61.06,9.21,0,13.81,0,2.52,1.12,3.1,3.47,3q23.47-.94,47-1.65c2.65-.08,3.41-1.16,3.19-3.72a52.78,52.78,0,0,1,0-8.89c.21-2.52-.46-3.67-3.15-3.76C177.36,248.3,164,247.74,150.54,247.21Zm201.62,0c-14.22.55-27.63,1.11-41,1.58-2.5.08-3.17,1.19-3,3.54a52.79,52.79,0,0,1,0,8.89c-.26,2.73.5,3.85,3.35,3.93,15.53.46,31.06,1,46.58,1.65,2.89.13,3.78-.86,3.7-3.55-.11-3.61,0-7.22,0-10.83,0-6.7-.71-5.63-5.56-5.23C354.6,247.3,353,247.19,352.16,247.19Zm-91.44-91.11h.1a56,56,0,0,1,0-6.35c.32-2.72-.83-3.57-3.35-3.52q-6.36.14-12.71,0c-2.64-.06-3.74.71-3.61,3.66.68,15.55,1.18,31.11,1.67,46.66.07,2.54.92,3.56,3.61,3.34a62.36,62.36,0,0,1,9.27,0c2.44.17,3.38-.69,3.46-3.11C259.66,183.2,260.2,169.64,260.72,156.08Z"/><path class="cls-1" d="M251.24,230c14.53.08,26.84,12.58,26.77,27.17S265.45,284,250.85,283.92,224,271.34,224.06,256.75,236.64,229.89,251.24,230Zm-.14,7.68c-10.17-.06-19.45,9.24-19.36,19.39s9.09,19.1,19.2,19.2,19.16-8.88,19.35-19.42C270.47,247,261.19,237.71,251.1,237.65Z"/></svg>